Point (1) = {0.750372236549,0.299259573033,-0.016216770220};
Point (2) = {0.778013867601,0.350922455559,0.331424011110};
Point (3) = {0.780499236192,0.409416676525,0.294747312520};
Point (4) = {0.775474113611,0.427669467117,0.196671781101};
Point (5) = {0.671980997331,0.473465176928,0.197412477599};
Point (6) = {0.662196317701,0.472100677195,0.232335740592};
Point (7) = {0.477771702508,0.282307691989,0.317649008777};
Point (8) = {0.446562838742,0.369637958238,0.256221148974};
Point (9) = {0.743601915533,0.181325443015,0.031453579017};
Point (10) = {0.745536774663,0.159297618101,0.088139678654};
Point (11) = {0.608199477392,0.301516701706,-0.107829276294};
Point (12) = {0.527449047964,0.379996337639,-0.041968149007};
Point (13) = {0.390497988138,0.326494142793,0.092420711882};
Point (14) = {0.414387810183,0.102234431052,0.097381385367};
Point (15) = {0.414403428327,0.102227029658,0.097367701294};
Point (16) = {0.587234215999,0.198324050190,-0.075704519009};
Point (17) = {1.017349446988,0.141411790548,0.354150990087};
Point (18) = {0.792728104493,-0.242523537622,0.260575709067};
Point (19) = {0.957540959285,-0.112555557684,0.356908568481};
Point (20) = {0.809937856703,-0.261749460108,0.327739369503};
Point (21) = {0.980876812246,-0.011485102249,0.453878145217};
Point (22) = {0.973287568809,0.103222154426,0.598250308188};
Point (23) = {0.344004205452,0.022391936494,0.352578170528};
Point (24) = {0.462081898624,-0.238150704677,0.243784156478};
Point (25) = {0.592134571763,-0.311981783485,0.280951634188};
Point (26) = {0.923947870512,-0.052031256853,0.185767666103};
Point (27) = {0.903208818352,0.054697770318,0.139595704170};
Point (28) = {0.996965380996,0.052443394835,0.235624606168};
Point (29) = {0.980696676767,-0.016661373461,0.235270995606};
Point (30) = {0.484861981757,-0.248429357699,0.671034021309};
Point (31) = {0.664298158479,-0.330453210591,0.392534922700};
Point (32) = {0.585217849742,-0.328078700210,0.319145656578};
Point (33) = {0.480763147708,-0.301935150624,0.355809546711};
Point (34) = {0.449551201248,-0.262260410489,0.551791146132};
Point (35) = {0.844052521757,0.109098854490,0.735421125645};
Point (36) = {1.014713691937,0.219274861815,0.436373452409};
Point (37) = {1.007953194346,0.253714102758,0.507826178113};
Point (38) = {0.407075771415,0.206265258007,0.591263929878};
Point (39) = {0.621049114136,0.222781888473,0.750790010919};
Point (40) = {0.395129973126,0.182691917888,0.592876293271};
Point (41) = {0.605436875125,0.145606095499,0.774428598632};
Point (42) = {0.790439832302,0.079544451961,0.754191862883};
Point (43) = {0.487746815613,-0.231376565449,0.688454920510};
Point (44) = {0.470738219126,-0.009531779184,0.741217596224};
Point (45) = {0.414369652166,0.102197374919,0.097378743904};
Point (46) = {0.412111390119,0.098064245016,0.099028463917};
Point (47) = {0.358303914496,0.014852132896,0.201863090127};
Point (48) = {0.393180412512,-0.061411909030,0.165764010314};
Point (49) = {0.856738957435,0.351637638345,0.414904024051};
Point (50) = {0.997797243516,0.272055874891,0.476216021446};
Point (51) = {1.007082274861,0.255972571294,0.507968051126};
Point (52) = {0.829880912558,0.250322806446,0.700884853366};
Point (53) = {0.775974582993,0.269224097079,0.706873629690};
Point (54) = {1.102503994079,0.103244999202,0.244317641393};
Point (55) = {1.051583638525,0.156129417319,0.354371001519};
Point (56) = {0.864580617658,0.463424679342,0.143235817687};
Point (57) = {0.879529191840,0.123759699739,-0.012301062764};
Point (58) = {0.979121445429,0.221595549826,-0.097085414851};
Point (59) = {1.096576301964,0.267601858953,-0.067784751347};
Point (60) = {1.197188451105,0.250533192524,0.062566713350};
Point (61) = {1.203971748395,0.403291266029,0.062797682136};
Point (62) = {1.075444124252,0.422024007739,0.329888950312};
Point (63) = {0.842820572147,0.414255638150,0.357960072736};
Point (64) = {0.934163097249,0.447820955001,0.318579715027};
Point (65) = {0.872601076006,0.346564625183,-0.092869177939};
Point (66) = {0.967118968745,0.303519520469,-0.122158338883};
Point (67) = {1.083068421562,0.331106229522,-0.088688783875};
Point (68) = {1.147052497113,0.414867344911,-0.011052717486};
Point (69) = {0.948554714838,0.450596021688,0.003262244077};
Point (70) = {-0.052527752688,0.753530341372,1.100314777482};
Point (71) = {0.112905627997,0.755355049195,1.193294145020};
Point (72) = {0.085559097745,0.889822360323,1.246226394380};
Point (73) = {-0.120470808160,1.123759699739,0.987698937236};
Point (74) = {-0.020878554571,1.221595549826,0.902914585149};
Point (75) = {0.096576301964,1.267601858953,0.932215248653};
Point (76) = {-0.050978412726,0.704700378810,1.027020308371};
Point (77) = {-0.111075137087,1.086263121377,0.797739500807};
Point (78) = {-0.126845818841,1.071357345937,0.813450313243};
Point (79) = {0.172378998423,1.029354004046,0.729614819123};
Point (80) = {0.251098573267,1.064108980767,0.752494042220};
Point (81) = {0.209954940630,1.035093492133,1.255097976943};
Point (82) = {0.197188451105,1.250533192524,1.062566713350};
Point (83) = {0.102503994079,1.103244999202,1.244317641393};
Point (84) = {-0.019303323233,0.983338626539,1.235270995606};
Point (85) = {-0.076052129488,0.947968743147,1.185767666103};
Point (86) = {-0.096791181648,1.054697770318,1.139595704170};
Point (87) = {-0.003034619004,1.052443394835,1.235624606168};
Point (88) = {0.274780760814,0.638339613233,1.103896367909};
Point (89) = {0.260686484120,0.573325052114,0.997498285377};
Point (90) = {0.380477766435,0.662923278093,0.893743999179};
Point (91) = {0.401319008152,0.818749131347,0.783190632657};
Point (92) = {0.414210711106,0.956462366369,0.792428663731};
Point (93) = {0.412401950668,1.100021267113,1.097082492323};
Point (94) = {0.378737122619,0.761050290507,1.111742006186};
Point (95) = {0.358303914496,1.014852132896,1.201863090127};
Point (96) = {0.393180412512,0.938588090970,1.165764010314};
Point (97) = {0.412111390119,1.098064245016,1.099028463917};
Point (98) = {0.832895188997,0.582607710098,0.069612871715};
Point (99) = {0.867501297293,0.692848654262,0.163369714787};
Point (100) = {0.947472247312,0.753530341372,0.100314777482};
Point (101) = {0.666095752915,0.570142059586,0.131392479619};
Point (102) = {0.592134571763,0.688018216515,0.280951634188};
Point (103) = {0.792728104493,0.757476462378,0.260575709067};
Point (104) = {0.923947870512,0.947968743147,0.185767666103};
Point (105) = {0.879529191840,1.123759699739,-0.012301062764};
Point (106) = {0.743601915533,1.181325443015,0.031453579017};
Point (107) = {0.745536774663,1.159297618101,0.088139678654};
Point (108) = {0.903208818352,1.054697770318,0.139595704170};
Point (109) = {0.859306431306,0.583088087596,0.020596019994};
Point (110) = {0.949021587274,0.704700378810,0.027020308371};
Point (111) = {0.873154181159,1.071357345937,-0.186549686757};
Point (112) = {0.587234215999,1.198324050190,-0.075704519009};
Point (113) = {0.414403428327,1.102227029658,0.097367701294};
Point (114) = {0.462081898624,0.761849295323,0.243784156478};
Point (115) = {0.378737122619,0.761050290507,0.111742006186};
Point (116) = {0.393180412512,0.938588090970,0.165764010314};
Point (117) = {0.605436875125,1.145606095499,-0.225571401368};
Point (118) = {0.790439832302,1.079544451961,-0.245808137117};
Point (119) = {0.414369652166,1.102197374919,0.097378743904};
Point (120) = {0.412111390119,1.098064245016,0.099028463917};
Point (121) = {0.412401950668,1.100021267113,0.097082492323};
Point (122) = {0.511777934327,0.545110897237,-0.166066652318};
Point (123) = {0.544679377300,0.547681859627,-0.175307945006};
Point (124) = {0.414210711106,0.956462366369,-0.207571336269};
Point (125) = {0.479109008359,0.744675505635,-0.306737810206};
Point (126) = {0.487746815613,0.768623434551,-0.311545079490};
Point (127) = {0.470738219126,0.990468220816,-0.258782403776};
Point (128) = {0.380477766435,0.662923278093,-0.106256000821};
Point (129) = {0.435046202594,0.590925472701,-0.182926002921};
Point (130) = {0.457888038760,0.726335676617,-0.288409794753};
Point (131) = {0.401319008152,0.818749131347,-0.216809367343};
Point (132) = {0.743601915533,0.181325443015,1.031453579017};
Point (133) = {0.750372236549,0.299259573033,0.983783229780};
Point (134) = {0.979121445429,0.221595549826,0.902914585149};
Point (135) = {0.879529191840,0.123759699739,0.987698937236};
Point (136) = {0.587234215999,0.198324050190,0.924295480991};
Point (137) = {0.608199477392,0.301516701706,0.892170723706};
Point (138) = {0.873154181159,0.071357345937,0.813450313243};
Point (139) = {0.888924862913,0.086263121377,0.797739500807};
Point (140) = {0.625070419574,0.328192627590,0.818010352522};
Point (141) = {0.872601076006,0.346564625183,0.907130822061};
Point (142) = {0.967118968745,0.303519520469,0.877841661117};
Point (143) = {0.684956969077,0.345071785410,0.800330467219};
Point (144) = {0.316874198365,0.509394919933,0.337273743345};
Point (145) = {0.480763147708,0.698064849376,0.355809546711};
Point (146) = {0.585217849742,0.671921299790,0.319145656578};
Point (147) = {0.664298158479,0.669546789409,0.392534922700};
Point (148) = {0.484861981757,0.751570642301,0.671034021309};
Point (149) = {0.449551201248,0.737739589511,0.551791146132};
Point (150) = {0.292277709701,0.366007775463,0.608703692577};
Point (151) = {0.289668843951,0.504961869140,0.405144171260};
Point (152) = {0.413820291502,0.707535164670,0.576590311782};
Point (153) = {0.479109008359,0.744675505635,0.693262189794};
Point (154) = {0.544679377300,0.547681859627,0.824692054994};
Point (155) = {0.457888038760,0.726335676617,0.711590205247};
Point (156) = {0.502776070398,0.502937231849,0.839382030350};
Point (157) = {0.424612313694,0.561201261056,0.820397113356};
Point (158) = {0.435046202594,0.590925472701,0.817073997079};
Point (159) = {0.511777934327,0.545110897237,0.833933347682};
Point (160) = {1.106348435623,0.986135945827,0.495713571653};
Point (161) = {1.156425378867,0.911720609552,0.447863689751};
Point (162) = {1.056383252551,0.826660757726,0.338107349910};
Point (163) = {1.063684977195,1.080385816528,0.601306219475};
Point (164) = {1.172378998423,1.029354004046,0.729614819123};
Point (165) = {1.077867520541,0.683332464637,0.302980292112};
Point (166) = {0.922071888492,0.635673126886,0.298389543913};
Point (167) = {0.980876812246,0.988514897751,0.453878145217};
Point (168) = {0.957540959285,0.887444442316,0.356908568481};
Point (169) = {0.809937856703,0.738250539892,0.327739369503};
Point (170) = {0.973287568809,1.103222154426,0.598250308188};
Point (171) = {0.859306431306,0.583088087596,1.020596019994};
Point (172) = {0.949021587274,0.704700378810,1.027020308371};
Point (173) = {0.888924862913,1.086263121377,0.797739500807};
Point (174) = {0.873154181159,1.071357345937,0.813450313243};
Point (175) = {0.790439832302,1.079544451961,0.754191862883};
Point (176) = {0.844052521757,1.109098854490,0.735421125645};
Point (177) = {1.221075510134,0.314219109765,0.618760824627};
Point (178) = {1.196456645604,0.498602515779,0.329358612927};
Point (179) = {0.948554714838,0.450596021688,1.003262244077};
Point (180) = {1.083068421562,0.331106229522,0.911311216125};
Point (181) = {1.147052497113,0.414867344911,0.988947282514};
Point (182) = {1.413820291502,0.707535164670,0.576590311782};
Point (183) = {1.292277709701,0.366007775463,0.608703692577};
Point (184) = {1.289668843951,0.504961869140,0.405144171260};
Point (185) = {1.260686484120,0.573325052114,0.997498285377};
Point (186) = {1.424612313694,0.561201261056,0.820397113356};
Point (187) = {1.247674821001,0.494990688834,0.990885424717};
Point (188) = {0.487746815613,0.768623434551,0.688454920510};
Point (189) = {1.401319008152,0.818749131347,0.783190632657};
Point (190) = {1.457888038760,0.726335676617,0.711590205247};
Point (191) = {1.435046202594,0.590925472701,0.817073997079};
Point (192) = {1.380477766435,0.662923278093,0.893743999179};
Point (193) = {0.158350039963,0.099918206449,0.429444407424};
Point (194) = {0.051583638525,0.156129417319,0.354371001519};
Point (195) = {0.235479421230,0.035658347152,0.351375235662};
Point (196) = {0.112281658952,0.181238512708,0.537880036421};
Point (197) = {0.209954940630,0.035093492133,0.255097976943};
Point (198) = {0.102503994079,0.103244999202,0.244317641393};
Point (199) = {0.197188451105,0.250533192524,0.062566713350};
Point (200) = {0.203971748395,0.403291266029,0.062797682136};
Point (201) = {0.239201191241,0.427664125658,0.068181096638};
Point (202) = {0.260060307874,0.213950752952,0.612606641395};
Point (203) = {0.257925404787,0.506592532376,0.246764987868};
Point (204) = {0.014713691937,0.219274861815,0.436373452409};
Point (205) = {0.007953194346,0.253714102758,0.507826178113};
Point (206) = {0.196456645604,0.498602515779,0.329358612927};
Point (207) = {0.075444124252,0.422024007739,0.329888950312};
Point (208) = {-0.002202756484,0.272055874891,0.476216021446};
Point (209) = {0.007082274861,0.255972571294,0.507968051126};
Point (210) = {0.221075510134,0.314219109765,0.618760824627};
Point (211) = {0.412401950668,0.100021267113,0.097082492323};
Point (212) = {0.274780760814,0.638339613233,0.103896367909};
Point (213) = {0.502776070398,0.502937231849,-0.160617969650};
Point (214) = {0.247674821001,0.494990688834,-0.009114575283};
Point (215) = {0.424612313694,0.561201261056,-0.179602886644};
Point (216) = {0.260686484120,0.573325052114,-0.002501714623};
Point (217) = {0.106348435623,0.986135945827,0.495713571653};
Point (218) = {-0.019123187754,0.988514897751,0.453878145217};
Point (219) = {-0.026712431191,1.103222154426,0.598250308188};
Point (220) = {0.063684977195,1.080385816528,0.601306219475};
Point (221) = {0.158350039963,1.099918206449,0.429444407424};
Point (222) = {0.007953194346,1.253714102758,0.507826178113};
Point (223) = {0.112281658952,1.181238512708,0.537880036421};
Point (224) = {0.017349446988,1.141411790548,0.354150990087};
Point (225) = {0.051583638525,1.156129417319,0.354371001519};
Point (226) = {0.014713691937,1.219274861815,0.436373452409};
Point (227) = {1.085559097745,0.889822360323,0.246226394380};
Point (228) = {1.112905627997,0.755355049195,0.193294145020};
Point (229) = {0.980696676767,0.983338626539,0.235270995606};
Point (230) = {0.235479421230,1.035658347152,0.351375235662};
Point (231) = {0.156425378867,0.911720609552,0.447863689751};
Point (232) = {0.260060307874,1.213950752952,0.612606641395};
Point (233) = {0.344004205452,1.022391936494,0.352578170528};
Point (234) = {0.395129973126,1.182691917888,0.592876293271};
Point (235) = {0.470738219126,0.990468220816,0.741217596224};
Point (236) = {0.251098573267,0.064108980767,0.752494042220};
Point (237) = {0.390497988138,0.326494142793,1.092420711882};
Point (238) = {0.096576301964,0.267601858953,0.932215248653};
Point (239) = {0.197188451105,0.250533192524,1.062566713350};
Point (240) = {0.527449047964,0.379996337639,0.958031850993};
Point (241) = {0.412401950668,0.100021267113,1.097082492323};
Point (242) = {0.414210711106,-0.043537633631,0.792428663731};
Point (243) = {0.083068421562,0.331106229522,0.911311216125};
Point (244) = {0.239201191241,0.427664125658,1.068181096638};
Point (245) = {0.247674821001,0.494990688834,0.990885424717};
Point (246) = {0.147052497113,0.414867344911,0.988947282514};
Point (247) = {0.203971748395,0.403291266029,1.062797682136};
Point (248) = {0.414387810183,0.102234431052,1.097381385367};
Point (249) = {0.414403428327,0.102227029658,1.097367701294};
Point (250) = {0.414369652166,0.102197374919,1.097378743904};
Point (251) = {0.625070419574,0.328192627590,-0.181989647478};
Point (252) = {0.684956969077,0.345071785410,-0.199669532781};
Point (253) = {0.063684977195,0.080385816528,0.601306219475};
Point (254) = {0.172378998423,0.029354004046,0.729614819123};
Point (255) = {-0.111075137087,0.086263121377,0.797739500807};
Point (256) = {-0.020878554571,0.221595549826,0.902914585149};
Point (257) = {-0.026712431191,0.103222154426,0.598250308188};
Point (258) = {-0.155947478243,0.109098854490,0.735421125645};
Point (259) = {-0.170119087442,0.250322806446,0.700884853366};
Point (260) = {-0.032881031255,0.303519520469,0.877841661117};
Point (261) = {0.112905627997,0.755355049195,0.193294145020};
Point (262) = {0.085559097745,0.889822360323,0.246226394380};
Point (263) = {0.056383252551,0.826660757726,0.338107349910};
Point (264) = {0.077867520541,0.683332464637,0.302980292112};
Point (265) = {0.209954940630,1.035093492133,0.255097976943};
Point (266) = {0.358303914496,1.014852132896,0.201863090127};
Point (267) = {-0.042459040715,0.887444442316,0.356908568481};
Point (268) = {-0.019303323233,0.983338626539,0.235270995606};
Point (269) = {0.102503994079,1.103244999202,0.244317641393};
Point (270) = {-0.003034619004,1.052443394835,0.235624606168};
Point (271) = {1.274780760814,0.638339613233,0.103896367909};
Point (272) = {1.257925404787,0.506592532376,0.246764987868};
Point (273) = {1.260686484120,0.573325052114,-0.002501714623};
Point (274) = {1.247674821001,0.494990688834,-0.009114575283};
Point (275) = {1.239201191241,0.427664125658,0.068181096638};
Line (1) = {2,3};
Line (2) = {3,4};
Line (3) = {4,1};
Line (4) = {1,9};
Line (5) = {9,10};
Line (6) = {10,2};
Line (7) = {4,5};
Line (8) = {5,12};
Line (9) = {12,11};
Line (10) = {11,1};
Line (11) = {11,16};
Line (12) = {16,9};
Line (13) = {5,6};
Line (14) = {6,8};
Line (15) = {8,13};
Line (16) = {13,12};
Line (17) = {7,2};
Line (18) = {10,15};
Line (19) = {15,14};
Line (20) = {14,7};
Line (21) = {6,3};
Line (22) = {7,8};
Line (23) = {13,14};
Line (24) = {15,16};
Line (25) = {22,21};
Line (26) = {21,17};
Line (27) = {17,36};
Line (28) = {36,37};
Line (29) = {37,22};
Line (30) = {19,20};
Line (31) = {20,18};
Line (32) = {18,26};
Line (33) = {26,29};
Line (34) = {29,19};
Line (35) = {19,21};
Line (36) = {17,28};
Line (37) = {28,29};
Line (38) = {24,25};
Line (39) = {25,18};
Line (40) = {26,27};
Line (41) = {27,10};
Line (42) = {15,45};
Line (43) = {45,46};
Line (44) = {46,48};
Line (45) = {48,24};
Line (46) = {27,28};
Line (47) = {36,50};
Line (48) = {50,49};
Line (49) = {49,2};
Line (50) = {20,31};
Line (51) = {31,32};
Line (52) = {32,25};
Line (53) = {39,38};
Line (54) = {38,7};
Line (55) = {49,53};
Line (56) = {53,39};
Line (57) = {45,14};
Line (58) = {38,40};
Line (59) = {40,23};
Line (60) = {23,47};
Line (61) = {47,46};
Line (62) = {35,22};
Line (63) = {31,30};
Line (64) = {30,43};
Line (65) = {43,42};
Line (66) = {42,35};
Line (67) = {30,34};
Line (68) = {34,23};
Line (69) = {40,44};
Line (70) = {44,43};
Line (71) = {35,52};
Line (72) = {52,51};
Line (73) = {51,37};
Line (74) = {34,33};
Line (75) = {33,24};
Line (76) = {48,47};
Line (77) = {32,33};
Line (78) = {39,41};
Line (79) = {41,42};
Line (80) = {52,53};
Line (81) = {51,50};
Line (82) = {41,44};
Line (83) = {58,57};
Line (84) = {57,9};
Line (85) = {1,65};
Line (86) = {65,66};
Line (87) = {66,58};
Line (88) = {4,56};
Line (89) = {56,69};
Line (90) = {69,65};
Line (91) = {61,60};
Line (92) = {60,54};
Line (93) = {54,55};
Line (94) = {55,36};
Line (95) = {50,62};
Line (96) = {62,61};
Line (97) = {56,64};
Line (98) = {64,62};
Line (99) = {61,68};
Line (100) = {68,69};
Line (101) = {17,55};
Line (102) = {54,28};
Line (103) = {27,57};
Line (104) = {58,59};
Line (105) = {59,60};
Line (106) = {3,63};
Line (107) = {63,64};
Line (108) = {59,67};
Line (109) = {67,66};
Line (110) = {49,63};
Line (111) = {68,67};
Line (112) = {72,71};
Line (113) = {71,70};
Line (114) = {70,85};
Line (115) = {85,84};
Line (116) = {84,72};
Line (117) = {77,74};
Line (118) = {74,75};
Line (119) = {75,80};
Line (120) = {80,79};
Line (121) = {79,77};
Line (122) = {76,70};
Line (123) = {71,88};
Line (124) = {88,89};
Line (125) = {89,76};
Line (126) = {73,74};
Line (127) = {77,78};
Line (128) = {78,73};
Line (129) = {76,78};
Line (130) = {73,86};
Line (131) = {86,85};
Line (132) = {94,88};
Line (133) = {72,81};
Line (134) = {81,95};
Line (135) = {95,96};
Line (136) = {96,94};
Line (137) = {83,81};
Line (138) = {84,87};
Line (139) = {87,83};
Line (140) = {75,82};
Line (141) = {82,83};
Line (142) = {87,86};
Line (143) = {80,92};
Line (144) = {92,93};
Line (145) = {93,82};
Line (146) = {89,90};
Line (147) = {90,91};
Line (148) = {91,79};
Line (149) = {92,91};
Line (150) = {95,97};
Line (151) = {97,93};
Line (152) = {90,94};
Line (153) = {97,96};
Line (154) = {111,105};
Line (155) = {105,106};
Line (156) = {106,112};
Line (157) = {112,117};
Line (158) = {117,118};
Line (159) = {118,111};
Line (160) = {101,98};
Line (161) = {98,99};
Line (162) = {99,103};
Line (163) = {103,102};
Line (164) = {102,101};
Line (165) = {100,99};
Line (166) = {103,104};
Line (167) = {104,100};
Line (168) = {98,109};
Line (169) = {109,123};
Line (170) = {123,122};
Line (171) = {122,101};
Line (172) = {100,110};
Line (173) = {110,109};
Line (174) = {104,108};
Line (175) = {108,105};
Line (176) = {111,110};
Line (177) = {115,114};
Line (178) = {114,102};
Line (179) = {122,129};
Line (180) = {129,128};
Line (181) = {128,115};
Line (182) = {116,114};
Line (183) = {108,107};
Line (184) = {107,113};
Line (185) = {113,119};
Line (186) = {119,120};
Line (187) = {120,116};
Line (188) = {106,107};
Line (189) = {113,112};
Line (190) = {118,126};
Line (191) = {126,125};
Line (192) = {125,123};
Line (193) = {121,119};
Line (194) = {117,127};
Line (195) = {127,124};
Line (196) = {124,121};
Line (197) = {116,115};
Line (198) = {120,121};
Line (199) = {124,131};
Line (200) = {131,128};
Line (201) = {126,127};
Line (202) = {125,130};
Line (203) = {130,129};
Line (204) = {131,130};
Line (205) = {134,135};
Line (206) = {135,132};
Line (207) = {132,133};
Line (208) = {133,141};
Line (209) = {141,142};
Line (210) = {142,134};
Line (211) = {132,136};
Line (212) = {136,137};
Line (213) = {137,133};
Line (214) = {135,138};
Line (215) = {138,42};
Line (216) = {41,136};
Line (217) = {134,139};
Line (218) = {139,35};
Line (219) = {52,142};
Line (220) = {140,137};
Line (221) = {141,143};
Line (222) = {143,140};
Line (223) = {138,139};
Line (224) = {140,39};
Line (225) = {53,143};
Line (226) = {8,144};
Line (227) = {144,145};
Line (228) = {145,146};
Line (229) = {146,6};
Line (230) = {146,147};
Line (231) = {147,63};
Line (232) = {38,150};
Line (233) = {150,151};
Line (234) = {151,144};
Line (235) = {147,148};
Line (236) = {148,153};
Line (237) = {153,154};
Line (238) = {154,143};
Line (239) = {150,157};
Line (240) = {157,156};
Line (241) = {156,140};
Line (242) = {149,145};
Line (243) = {151,152};
Line (244) = {152,149};
Line (245) = {148,149};
Line (246) = {156,159};
Line (247) = {159,154};
Line (248) = {153,155};
Line (249) = {155,152};
Line (250) = {155,158};
Line (251) = {158,157};
Line (252) = {159,158};
Line (253) = {160,163};
Line (254) = {163,170};
Line (255) = {170,167};
Line (256) = {167,160};
Line (257) = {162,161};
Line (258) = {161,160};
Line (259) = {167,168};
Line (260) = {168,162};
Line (261) = {182,161};
Line (262) = {163,164};
Line (263) = {164,189};
Line (264) = {189,190};
Line (265) = {190,182};
Line (266) = {162,165};
Line (267) = {165,178};
Line (268) = {178,184};
Line (269) = {184,182};
Line (270) = {165,166};
Line (271) = {166,169};
Line (272) = {169,168};
Line (273) = {185,172};
Line (274) = {172,174};
Line (275) = {174,173};
Line (276) = {173,164};
Line (277) = {189,192};
Line (278) = {192,185};
Line (279) = {147,169};
Line (280) = {166,64};
Line (281) = {173,176};
Line (282) = {176,170};
Line (283) = {62,178};
Line (284) = {175,174};
Line (285) = {172,171};
Line (286) = {171,154};
Line (287) = {153,188};
Line (288) = {188,175};
Line (289) = {171,179};
Line (290) = {179,141};
Line (291) = {175,176};
Line (292) = {148,188};
Line (293) = {181,179};
Line (294) = {185,187};
Line (295) = {187,181};
Line (296) = {177,180};
Line (297) = {180,142};
Line (298) = {51,177};
Line (299) = {181,180};
Line (300) = {177,183};
Line (301) = {183,186};
Line (302) = {186,187};
Line (303) = {183,184};
Line (304) = {190,191};
Line (305) = {191,186};
Line (306) = {192,191};
Line (307) = {23,195};
Line (308) = {195,193};
Line (309) = {193,196};
Line (310) = {196,202};
Line (311) = {202,40};
Line (312) = {193,194};
Line (313) = {194,204};
Line (314) = {204,205};
Line (315) = {205,196};
Line (316) = {195,197};
Line (317) = {197,198};
Line (318) = {198,194};
Line (319) = {198,199};
Line (320) = {199,200};
Line (321) = {200,207};
Line (322) = {207,208};
Line (323) = {208,204};
Line (324) = {47,197};
Line (325) = {201,13};
Line (326) = {144,203};
Line (327) = {203,201};
Line (328) = {205,209};
Line (329) = {209,210};
Line (330) = {210,202};
Line (331) = {201,200};
Line (332) = {199,211};
Line (333) = {211,45};
Line (334) = {211,46};
Line (335) = {203,206};
Line (336) = {206,207};
Line (337) = {150,210};
Line (338) = {151,206};
Line (339) = {209,208};
Line (340) = {5,101};
Line (341) = {122,213};
Line (342) = {213,12};
Line (343) = {146,102};
Line (344) = {114,145};
Line (345) = {203,212};
Line (346) = {212,115};
Line (347) = {201,214};
Line (348) = {214,215};
Line (349) = {215,213};
Line (350) = {212,216};
Line (351) = {216,214};
Line (352) = {128,216};
Line (353) = {215,129};
Line (354) = {221,217};
Line (355) = {217,218};
Line (356) = {218,224};
Line (357) = {224,225};
Line (358) = {225,221};
Line (359) = {217,220};
Line (360) = {220,223};
Line (361) = {223,221};
Line (362) = {219,220};
Line (363) = {223,222};
Line (364) = {222,219};
Line (365) = {219,218};
Line (366) = {224,226};
Line (367) = {226,222};
Line (368) = {225,226};
Line (369) = {228,100};
Line (370) = {99,166};
Line (371) = {165,228};
Line (372) = {103,169};
Line (373) = {227,229};
Line (374) = {229,168};
Line (375) = {162,227};
Line (376) = {227,228};
Line (377) = {104,229};
Line (378) = {230,221};
Line (379) = {217,231};
Line (380) = {231,230};
Line (381) = {233,230};
Line (382) = {231,152};
Line (383) = {149,233};
Line (384) = {223,232};
Line (385) = {232,80};
Line (386) = {79,220};
Line (387) = {233,234};
Line (388) = {234,232};
Line (389) = {91,155};
Line (390) = {234,235};
Line (391) = {235,92};
Line (392) = {188,235};
Line (393) = {98,56};
Line (394) = {202,236};
Line (395) = {236,238};
Line (396) = {238,243};
Line (397) = {243,210};
Line (398) = {238,239};
Line (399) = {239,241};
Line (400) = {241,242};
Line (401) = {242,236};
Line (402) = {242,44};
Line (403) = {237,240};
Line (404) = {240,137};
Line (405) = {136,249};
Line (406) = {249,248};
Line (407) = {248,237};
Line (408) = {156,240};
Line (409) = {237,244};
Line (410) = {244,245};
Line (411) = {245,157};
Line (412) = {239,247};
Line (413) = {247,244};
Line (414) = {248,250};
Line (415) = {250,241};
Line (416) = {243,246};
Line (417) = {246,247};
Line (418) = {250,249};
Line (419) = {245,246};
Line (420) = {109,69};
Line (421) = {11,251};
Line (422) = {251,252};
Line (423) = {252,65};
Line (424) = {123,252};
Line (425) = {213,251};
Line (426) = {196,253};
Line (427) = {253,254};
Line (428) = {254,236};
Line (429) = {258,255};
Line (430) = {255,256};
Line (431) = {256,260};
Line (432) = {260,259};
Line (433) = {259,258};
Line (434) = {255,254};
Line (435) = {238,256};
Line (436) = {253,257};
Line (437) = {257,205};
Line (438) = {258,257};
Line (439) = {243,260};
Line (440) = {259,209};
Line (441) = {262,263};
Line (442) = {263,231};
Line (443) = {230,265};
Line (444) = {265,262};
Line (445) = {262,261};
Line (446) = {261,264};
Line (447) = {264,263};
Line (448) = {212,261};
Line (449) = {264,206};
Line (450) = {265,266};
Line (451) = {266,116};
Line (452) = {233,266};
Line (453) = {267,263};
Line (454) = {262,268};
Line (455) = {268,267};
Line (456) = {218,267};
Line (457) = {225,269};
Line (458) = {269,265};
Line (459) = {224,270};
Line (460) = {270,268};
Line (461) = {270,269};
Line (462) = {178,272};
Line (463) = {272,271};
Line (464) = {271,228};
Line (465) = {110,273};
Line (466) = {273,271};
Line (467) = {61,275};
Line (468) = {275,272};
Line (469) = {275,274};
Line (470) = {274,273};
Line (471) = {274,68};
Line Loop (1) = {1,2,3,4,5,6};
Plane Surface (1) = {1}; Physical Surface (1) = {1};
Line Loop (2) = {-3,7,8,9,10};
Plane Surface (2) = {2}; Physical Surface (2) = {2};
Line Loop (3) = {-4,-10,11,12};
Plane Surface (3) = {3}; Physical Surface (3) = {3};
Line Loop (4) = {13,14,15,16,-8};
Plane Surface (4) = {4}; Physical Surface (4) = {4};
Line Loop (5) = {17,-6,18,19,20};
Plane Surface (5) = {5}; Physical Surface (5) = {5};
Line Loop (6) = {21,-1,-17,22,-14};
Plane Surface (6) = {6}; Physical Surface (6) = {6};
Line Loop (7) = {2,7,13,21};
Plane Surface (7) = {7}; Physical Surface (7) = {7};
Line Loop (8) = {22,15,23,20};
Plane Surface (8) = {8}; Physical Surface (8) = {8};
Line Loop (9) = {5,18,24,12};
Plane Surface (9) = {9}; Physical Surface (9) = {9};
Line Loop (10) = {-9,-16,23,-19,24,-11};
Plane Surface (10) = {10}; Physical Surface (10) = {10};
Line Loop (11) = {25,26,27,28,29};
Plane Surface (11) = {11}; Physical Surface (11) = {11};
Line Loop (12) = {30,31,32,33,34};
Plane Surface (12) = {12}; Physical Surface (12) = {12};
Line Loop (13) = {35,26,36,37,34};
Plane Surface (13) = {13}; Physical Surface (13) = {13};
Line Loop (14) = {38,39,32,40,41,18,42,43,44,45};
Plane Surface (14) = {14}; Physical Surface (14) = {14};
Line Loop (15) = {-6,-41,46,-36,27,47,48,49};
Plane Surface (15) = {15}; Physical Surface (15) = {15};
Line Loop (16) = {39,-31,50,51,52};
Plane Surface (16) = {16}; Physical Surface (16) = {16};
Line Loop (17) = {53,54,17,-49,55,56};
Plane Surface (17) = {17}; Physical Surface (17) = {17};
Line Loop (18) = {57,20,-54,58,59,60,61,-43};
Plane Surface (18) = {18}; Physical Surface (18) = {18};
Line Loop (19) = {62,25,-35,30,50,63,64,65,66};
Plane Surface (19) = {19}; Physical Surface (19) = {19};
Line Loop (20) = {67,68,-59,69,70,-64};
Plane Surface (20) = {20}; Physical Surface (20) = {20};
Line Loop (21) = {29,-62,71,72,73};
Plane Surface (21) = {21}; Physical Surface (21) = {21};
Line Loop (22) = {-68,74,75,-45,76,-60};
Plane Surface (22) = {22}; Physical Surface (22) = {22};
Line Loop (23) = {38,-52,77,75};
Plane Surface (23) = {23}; Physical Surface (23) = {23};
Line Loop (24) = {40,46,37,-33};
Plane Surface (24) = {24}; Physical Surface (24) = {24};
Line Loop (25) = {-63,51,77,-74,-67};
Plane Surface (25) = {25}; Physical Surface (25) = {25};
Line Loop (26) = {78,79,66,71,80,56};
Plane Surface (26) = {26}; Physical Surface (26) = {26};
Line Loop (27) = {28,-73,81,-47};
Plane Surface (27) = {27}; Physical Surface (27) = {27};
Line Loop (28) = {-58,-53,78,82,-69};
Plane Surface (28) = {28}; Physical Surface (28) = {28};
Line Loop (29) = {79,-65,-70,-82};
Plane Surface (29) = {29}; Physical Surface (29) = {29};
Line Loop (30) = {19,-57,-42};
Plane Surface (30) = {30}; Physical Surface (30) = {30};
Line Loop (31) = {-61,-76,-44};
Plane Surface (31) = {31}; Physical Surface (31) = {31};
Line Loop (32) = {-48,-81,-72,80,-55};
Plane Surface (32) = {32}; Physical Surface (32) = {32};
Line Loop (33) = {83,84,-4,85,86,87};
Plane Surface (33) = {33}; Physical Surface (33) = {33};
Line Loop (34) = {-3,88,89,90,-85};
Plane Surface (34) = {34}; Physical Surface (34) = {34};
Line Loop (35) = {91,92,93,94,47,95,96};
Plane Surface (35) = {35}; Physical Surface (35) = {35};
Line Loop (36) = {97,98,96,99,100,-89};
Plane Surface (36) = {36}; Physical Surface (36) = {36};
Line Loop (37) = {-27,101,94};
Plane Surface (37) = {37}; Physical Surface (37) = {37};
Line Loop (38) = {102,-46,103,-83,104,105,92};
Plane Surface (38) = {38}; Physical Surface (38) = {38};
Line Loop (39) = {93,-101,36,-102};
Plane Surface (39) = {39}; Physical Surface (39) = {39};
Line Loop (40) = {-88,-2,106,107,-97};
Plane Surface (40) = {40}; Physical Surface (40) = {40};
Line Loop (41) = {-84,-103,41,-5};
Plane Surface (41) = {41}; Physical Surface (41) = {41};
Line Loop (42) = {104,108,109,87};
Plane Surface (42) = {42}; Physical Surface (42) = {42};
Line Loop (43) = {-1,-49,110,-106};
Plane Surface (43) = {43}; Physical Surface (43) = {43};
Line Loop (44) = {105,-91,99,111,-108};
Plane Surface (44) = {44}; Physical Surface (44) = {44};
Line Loop (45) = {-95,48,110,107,98};
Plane Surface (45) = {45}; Physical Surface (45) = {45};
Line Loop (46) = {86,-109,-111,100,90};
Plane Surface (46) = {46}; Physical Surface (46) = {46};
Line Loop (47) = {112,113,114,115,116};
Plane Surface (47) = {47}; Physical Surface (47) = {47};
Line Loop (48) = {117,118,119,120,121};
Plane Surface (48) = {48}; Physical Surface (48) = {48};
Line Loop (49) = {122,-113,123,124,125};
Plane Surface (49) = {49}; Physical Surface (49) = {49};
Line Loop (50) = {126,-117,127,128};
Plane Surface (50) = {50}; Physical Surface (50) = {50};
Line Loop (51) = {-122,129,128,130,131,-114};
Plane Surface (51) = {51}; Physical Surface (51) = {51};
Line Loop (52) = {132,-123,-112,133,134,135,136};
Plane Surface (52) = {52}; Physical Surface (52) = {52};
Line Loop (53) = {137,-133,-116,138,139};
Plane Surface (53) = {53}; Physical Surface (53) = {53};
Line Loop (54) = {126,118,140,141,-139,142,-130};
Plane Surface (54) = {54}; Physical Surface (54) = {54};
Line Loop (55) = {-140,119,143,144,145};
Plane Surface (55) = {55}; Physical Surface (55) = {55};
Line Loop (56) = {121,127,-129,-125,146,147,148};
Plane Surface (56) = {56}; Physical Surface (56) = {56};
Line Loop (57) = {-120,143,149,148};
Plane Surface (57) = {57}; Physical Surface (57) = {57};
Line Loop (58) = {145,141,137,134,150,151};
Plane Surface (58) = {58}; Physical Surface (58) = {58};
Line Loop (59) = {-115,-131,-142,-138};
Plane Surface (59) = {59}; Physical Surface (59) = {59};
Line Loop (60) = {124,146,152,132};
Plane Surface (60) = {60}; Physical Surface (60) = {60};
Line Loop (61) = {-152,147,-149,144,-151,153,136};
Plane Surface (61) = {61}; Physical Surface (61) = {61};
Line Loop (62) = {135,-153,-150};
Plane Surface (62) = {62}; Physical Surface (62) = {62};
Line Loop (63) = {154,155,156,157,158,159};
Plane Surface (63) = {63}; Physical Surface (63) = {63};
Line Loop (64) = {160,161,162,163,164};
Plane Surface (64) = {64}; Physical Surface (64) = {64};
Line Loop (65) = {165,162,166,167};
Plane Surface (65) = {65}; Physical Surface (65) = {65};
Line Loop (66) = {160,168,169,170,171};
Plane Surface (66) = {66}; Physical Surface (66) = {66};
Line Loop (67) = {161,-165,172,173,-168};
Plane Surface (67) = {67}; Physical Surface (67) = {67};
Line Loop (68) = {-167,174,175,-154,176,-172};
Plane Surface (68) = {68}; Physical Surface (68) = {68};
Line Loop (69) = {177,178,164,-171,179,180,181};
Plane Surface (69) = {69}; Physical Surface (69) = {69};
Line Loop (70) = {182,178,-163,166,174,183,184,185,186,187};
Plane Surface (70) = {70}; Physical Surface (70) = {70};
Line Loop (71) = {188,184,189,-156};
Plane Surface (71) = {71}; Physical Surface (71) = {71};
Line Loop (72) = {155,188,-183,175};
Plane Surface (72) = {72}; Physical Surface (72) = {72};
Line Loop (73) = {-169,-173,-176,-159,190,191,192};
Plane Surface (73) = {73}; Physical Surface (73) = {73};
Line Loop (74) = {193,-185,189,157,194,195,196};
Plane Surface (74) = {74}; Physical Surface (74) = {74};
Line Loop (75) = {-182,197,177};
Plane Surface (75) = {75}; Physical Surface (75) = {75};
Line Loop (76) = {-197,-187,198,-196,199,200,181};
Plane Surface (76) = {76}; Physical Surface (76) = {76};
Line Loop (77) = {158,190,201,-194};
Plane Surface (77) = {77}; Physical Surface (77) = {77};
Line Loop (78) = {186,198,193};
Plane Surface (78) = {78}; Physical Surface (78) = {78};
Line Loop (79) = {-170,-192,202,203,-179};
Plane Surface (79) = {79}; Physical Surface (79) = {79};
Line Loop (80) = {-191,201,195,199,204,-202};
Plane Surface (80) = {80}; Physical Surface (80) = {80};
Line Loop (81) = {-180,-203,-204,200};
Plane Surface (81) = {81}; Physical Surface (81) = {81};
Line Loop (82) = {205,206,207,208,209,210};
Plane Surface (82) = {82}; Physical Surface (82) = {82};
Line Loop (83) = {-207,211,212,213};
Plane Surface (83) = {83}; Physical Surface (83) = {83};
Line Loop (84) = {-211,-206,214,215,-79,216};
Plane Surface (84) = {84}; Physical Surface (84) = {84};
Line Loop (85) = {217,218,71,219,210};
Plane Surface (85) = {85}; Physical Surface (85) = {85};
Line Loop (86) = {220,213,208,221,222};
Plane Surface (86) = {86}; Physical Surface (86) = {86};
Line Loop (87) = {205,214,223,-217};
Plane Surface (87) = {87}; Physical Surface (87) = {87};
Line Loop (88) = {216,212,-220,224,78};
Plane Surface (88) = {88}; Physical Surface (88) = {88};
Line Loop (89) = {-223,215,66,-218};
Plane Surface (89) = {89}; Physical Surface (89) = {89};
Line Loop (90) = {224,-56,225,222};
Plane Surface (90) = {90}; Physical Surface (90) = {90};
Line Loop (91) = {209,-219,80,225,-221};
Plane Surface (91) = {91}; Physical Surface (91) = {91};
Line Loop (92) = {14,226,227,228,229};
Plane Surface (92) = {92}; Physical Surface (92) = {92};
Line Loop (93) = {-106,-21,-229,230,231};
Plane Surface (93) = {93}; Physical Surface (93) = {93};
Line Loop (94) = {-226,-22,-54,232,233,234};
Plane Surface (94) = {94}; Physical Surface (94) = {94};
Line Loop (95) = {-225,-55,110,-231,235,236,237,238};
Plane Surface (95) = {95}; Physical Surface (95) = {95};
Line Loop (96) = {224,53,232,239,240,241};
Plane Surface (96) = {96}; Physical Surface (96) = {96};
Line Loop (97) = {242,-227,-234,243,244};
Plane Surface (97) = {97}; Physical Surface (97) = {97};
Line Loop (98) = {228,230,235,245,242};
Plane Surface (98) = {98}; Physical Surface (98) = {98};
Line Loop (99) = {238,222,-241,246,247};
Plane Surface (99) = {99}; Physical Surface (99) = {99};
Line Loop (100) = {244,-245,236,248,249};
Plane Surface (100) = {100}; Physical Surface (100) = {100};
Line Loop (101) = {233,243,-249,250,251,-239};
Plane Surface (101) = {101}; Physical Surface (101) = {101};
Line Loop (102) = {-248,237,-247,252,-250};
Plane Surface (102) = {102}; Physical Surface (102) = {102};
Line Loop (103) = {-240,-251,-252,-246};
Plane Surface (103) = {103}; Physical Surface (103) = {103};
Line Loop (104) = {253,254,255,256};
Plane Surface (104) = {104}; Physical Surface (104) = {104};
Line Loop (105) = {257,258,-256,259,260};
Plane Surface (105) = {105}; Physical Surface (105) = {105};
Line Loop (106) = {261,258,253,262,263,264,265};
Plane Surface (106) = {106}; Physical Surface (106) = {106};
Line Loop (107) = {-257,266,267,268,269,261};
Plane Surface (107) = {107}; Physical Surface (107) = {107};
Line Loop (108) = {266,270,271,272,260};
Plane Surface (108) = {108}; Physical Surface (108) = {108};
Line Loop (109) = {273,274,275,276,263,277,278};
Plane Surface (109) = {109}; Physical Surface (109) = {109};
Line Loop (110) = {279,-271,280,-107,-231};
Plane Surface (110) = {110}; Physical Surface (110) = {110};
Line Loop (111) = {-254,262,-276,281,282};
Plane Surface (111) = {111}; Physical Surface (111) = {111};
Line Loop (112) = {-267,270,280,98,283};
Plane Surface (112) = {112}; Physical Surface (112) = {112};
Line Loop (113) = {284,-274,285,286,-237,287,288};
Plane Surface (113) = {113}; Physical Surface (113) = {113};
Line Loop (114) = {-238,-286,289,290,221};
Plane Surface (114) = {114}; Physical Surface (114) = {114};
Line Loop (115) = {291,282,255,259,-272,-279,235,292,288};
Plane Surface (115) = {115}; Physical Surface (115) = {115};
Line Loop (116) = {293,-289,-285,-273,294,295};
Plane Surface (116) = {116}; Physical Surface (116) = {116};
Line Loop (117) = {-275,-284,291,-281};
Plane Surface (117) = {117}; Physical Surface (117) = {117};
Line Loop (118) = {296,297,-219,72,298};
Plane Surface (118) = {118}; Physical Surface (118) = {118};
Line Loop (119) = {299,-296,300,301,302,295};
Plane Surface (119) = {119}; Physical Surface (119) = {119};
Line Loop (120) = {300,303,-268,-283,-95,-81,298};
Plane Surface (120) = {120}; Physical Surface (120) = {120};
Line Loop (121) = {290,209,-297,-299,293};
Plane Surface (121) = {121}; Physical Surface (121) = {121};
Line Loop (122) = {-301,303,269,-265,304,305};
Plane Surface (122) = {122}; Physical Surface (122) = {122};
Line Loop (123) = {302,-294,-278,306,305};
Plane Surface (123) = {123}; Physical Surface (123) = {123};
Line Loop (124) = {236,287,-292};
Plane Surface (124) = {124}; Physical Surface (124) = {124};
Line Loop (125) = {264,304,-306,-277};
Plane Surface (125) = {125}; Physical Surface (125) = {125};
Line Loop (126) = {307,308,309,310,311,59};
Plane Surface (126) = {126}; Physical Surface (126) = {126};
Line Loop (127) = {-309,312,313,314,315};
Plane Surface (127) = {127}; Physical Surface (127) = {127};
Line Loop (128) = {-312,-308,316,317,318};
Plane Surface (128) = {128}; Physical Surface (128) = {128};
Line Loop (129) = {-313,-318,319,320,321,322,323};
Plane Surface (129) = {129}; Physical Surface (129) = {129};
Line Loop (130) = {-316,-307,60,324};
Plane Surface (130) = {130}; Physical Surface (130) = {130};
Line Loop (131) = {325,-15,226,326,327};
Plane Surface (131) = {131}; Physical Surface (131) = {131};
Line Loop (132) = {-310,-315,328,329,330};
Plane Surface (132) = {132}; Physical Surface (132) = {132};
Line Loop (133) = {-23,-325,331,-320,332,333,57};
Plane Surface (133) = {133}; Physical Surface (133) = {133};
Line Loop (134) = {324,317,319,332,334,-61};
Plane Surface (134) = {134}; Physical Surface (134) = {134};
Line Loop (135) = {-331,-327,335,336,-321};
Plane Surface (135) = {135}; Physical Surface (135) = {135};
Line Loop (136) = {311,-58,232,337,330};
Plane Surface (136) = {136}; Physical Surface (136) = {136};
Line Loop (137) = {-326,-234,338,-335};
Plane Surface (137) = {137}; Physical Surface (137) = {137};
Line Loop (138) = {314,328,339,323};
Plane Surface (138) = {138}; Physical Surface (138) = {138};
Line Loop (139) = {233,338,336,322,-339,329,-337};
Plane Surface (139) = {139}; Physical Surface (139) = {139};
Line Loop (140) = {333,43,-334};
Plane Surface (140) = {140}; Physical Surface (140) = {140};
Line Loop (141) = {-8,340,-171,341,342};
Plane Surface (141) = {141}; Physical Surface (141) = {141};
Line Loop (142) = {-340,13,-229,343,164};
Plane Surface (142) = {142}; Physical Surface (142) = {142};
Line Loop (143) = {344,-227,326,345,346,177};
Plane Surface (143) = {143}; Physical Surface (143) = {143};
Line Loop (144) = {342,-16,-325,347,348,349};
Plane Surface (144) = {144}; Physical Surface (144) = {144};
Line Loop (145) = {-327,345,350,351,-347};
Plane Surface (145) = {145}; Physical Surface (145) = {145};
Line Loop (146) = {343,-178,344,228};
Plane Surface (146) = {146}; Physical Surface (146) = {146};
Line Loop (147) = {346,-181,352,-350};
Plane Surface (147) = {147}; Physical Surface (147) = {147};
Line Loop (148) = {341,-349,353,-179};
Plane Surface (148) = {148}; Physical Surface (148) = {148};
Line Loop (149) = {348,353,180,352,351};
Plane Surface (149) = {149}; Physical Surface (149) = {149};
Line Loop (150) = {354,355,356,357,358};
Plane Surface (150) = {150}; Physical Surface (150) = {150};
Line Loop (151) = {359,360,361,354};
Plane Surface (151) = {151}; Physical Surface (151) = {151};
Line Loop (152) = {362,360,363,364};
Plane Surface (152) = {152}; Physical Surface (152) = {152};
Line Loop (153) = {364,365,356,366,367};
Plane Surface (153) = {153}; Physical Surface (153) = {153};
Line Loop (154) = {355,-365,362,-359};
Plane Surface (154) = {154}; Physical Surface (154) = {154};
Line Loop (155) = {-363,361,-358,368,367};
Plane Surface (155) = {155}; Physical Surface (155) = {155};
Line Loop (156) = {357,368,-366};
Plane Surface (156) = {156}; Physical Surface (156) = {156};
Line Loop (157) = {369,165,370,-270,371};
Plane Surface (157) = {157}; Physical Surface (157) = {157};
Line Loop (158) = {162,372,-271,-370};
Plane Surface (158) = {158}; Physical Surface (158) = {158};
Line Loop (159) = {373,374,260,375};
Plane Surface (159) = {159}; Physical Surface (159) = {159};
Line Loop (160) = {376,-371,-266,375};
Plane Surface (160) = {160}; Physical Surface (160) = {160};
Line Loop (161) = {376,369,-167,377,-373};
Plane Surface (161) = {161}; Physical Surface (161) = {161};
Line Loop (162) = {-377,-166,372,272,-374};
Plane Surface (162) = {162}; Physical Surface (162) = {162};
Line Loop (163) = {378,354,379,380};
Plane Surface (163) = {163}; Physical Surface (163) = {163};
Line Loop (164) = {381,-380,382,244,383};
Plane Surface (164) = {164}; Physical Surface (164) = {164};
Line Loop (165) = {360,384,385,120,386};
Plane Surface (165) = {165}; Physical Surface (165) = {165};
Line Loop (166) = {-384,361,-378,-381,387,388};
Plane Surface (166) = {166}; Physical Surface (166) = {166};
Line Loop (167) = {-382,-379,359,-386,-148,389,249};
Plane Surface (167) = {167}; Physical Surface (167) = {167};
Line Loop (168) = {-385,-388,390,391,-143};
Plane Surface (168) = {168}; Physical Surface (168) = {168};
Line Loop (169) = {-390,-387,-383,-245,292,392};
Plane Surface (169) = {169}; Physical Surface (169) = {169};
Line Loop (170) = {-389,-149,-391,-392,-287,248};
Plane Surface (170) = {170}; Physical Surface (170) = {170};
Line Loop (171) = {-161,393,97,-280,-370};
Plane Surface (171) = {171}; Physical Surface (171) = {171};
Line Loop (172) = {340,160,393,-88,7};
Plane Surface (172) = {172}; Physical Surface (172) = {172};
Line Loop (173) = {343,-163,372,-279,-230};
Plane Surface (173) = {173}; Physical Surface (173) = {173};
Line Loop (174) = {394,395,396,397,330};
Plane Surface (174) = {174}; Physical Surface (174) = {174};
Line Loop (175) = {395,398,399,400,401};
Plane Surface (175) = {175}; Physical Surface (175) = {175};
Line Loop (176) = {394,-401,402,-69,-311};
Plane Surface (176) = {176}; Physical Surface (176) = {176};
Line Loop (177) = {403,404,-212,405,406,407};
Plane Surface (177) = {177}; Physical Surface (177) = {177};
Line Loop (178) = {240,408,-403,409,410,411};
Plane Surface (178) = {178}; Physical Surface (178) = {178};
Line Loop (179) = {-399,412,413,-409,-407,414,415};
Plane Surface (179) = {179}; Physical Surface (179) = {179};
Line Loop (180) = {-398,396,416,417,-412};
Plane Surface (180) = {180}; Physical Surface (180) = {180};
Line Loop (181) = {408,404,-220,-241};
Plane Surface (181) = {181}; Physical Surface (181) = {181};
Line Loop (182) = {-216,82,-402,-400,-415,418,-405};
Plane Surface (182) = {182}; Physical Surface (182) = {182};
Line Loop (183) = {397,-337,239,-411,419,-416};
Plane Surface (183) = {183}; Physical Surface (183) = {183};
Line Loop (184) = {410,419,417,413};
Plane Surface (184) = {184}; Physical Surface (184) = {184};
Line Loop (185) = {-406,-418,-414};
Plane Surface (185) = {185}; Physical Surface (185) = {185};
Line Loop (186) = {-393,168,420,-89};
Plane Surface (186) = {186}; Physical Surface (186) = {186};
Line Loop (187) = {-85,-10,421,422,423};
Plane Surface (187) = {187}; Physical Surface (187) = {187};
Line Loop (188) = {-90,-420,169,424,423};
Plane Surface (188) = {188}; Physical Surface (188) = {188};
Line Loop (189) = {-9,-342,425,-421};
Plane Surface (189) = {189}; Physical Surface (189) = {189};
Line Loop (190) = {341,425,422,-424,170};
Plane Surface (190) = {190}; Physical Surface (190) = {190};
Line Loop (191) = {-394,-310,426,427,428};
Plane Surface (191) = {191}; Physical Surface (191) = {191};
Line Loop (192) = {429,430,431,432,433};
Plane Surface (192) = {192}; Physical Surface (192) = {192};
Line Loop (193) = {434,428,395,435,-430};
Plane Surface (193) = {193}; Physical Surface (193) = {193};
Line Loop (194) = {426,436,437,315};
Plane Surface (194) = {194}; Physical Surface (194) = {194};
Line Loop (195) = {427,-434,-429,438,-436};
Plane Surface (195) = {195}; Physical Surface (195) = {195};
Line Loop (196) = {-435,396,439,-431};
Plane Surface (196) = {196}; Physical Surface (196) = {196};
Line Loop (197) = {-437,-438,-433,440,-328};
Plane Surface (197) = {197}; Physical Surface (197) = {197};
Line Loop (198) = {397,-329,-440,-432,-439};
Plane Surface (198) = {198}; Physical Surface (198) = {198};
Line Loop (199) = {441,442,380,443,444};
Plane Surface (199) = {199}; Physical Surface (199) = {199};
Line Loop (200) = {445,446,447,-441};
Plane Surface (200) = {200}; Physical Surface (200) = {200};
Line Loop (201) = {448,446,449,-335,345};
Plane Surface (201) = {201}; Physical Surface (201) = {201};
Line Loop (202) = {448,-445,-444,450,451,197,-346};
Plane Surface (202) = {202}; Physical Surface (202) = {202};
Line Loop (203) = {-382,-442,-447,449,-338,243};
Plane Surface (203) = {203}; Physical Surface (203) = {203};
Line Loop (204) = {-443,-381,452,-450};
Plane Surface (204) = {204}; Physical Surface (204) = {204};
Line Loop (205) = {-242,383,452,451,182,344};
Plane Surface (205) = {205}; Physical Surface (205) = {205};
Line Loop (206) = {453,-441,454,455};
Plane Surface (206) = {206}; Physical Surface (206) = {206};
Line Loop (207) = {442,-379,355,456,453};
Plane Surface (207) = {207}; Physical Surface (207) = {207};
Line Loop (208) = {-443,378,-358,457,458};
Plane Surface (208) = {208}; Physical Surface (208) = {208};
Line Loop (209) = {455,-456,356,459,460};
Plane Surface (209) = {209}; Physical Surface (209) = {209};
Line Loop (210) = {444,454,-460,461,458};
Plane Surface (210) = {210}; Physical Surface (210) = {210};
Line Loop (211) = {357,457,-461,-459};
Plane Surface (211) = {211}; Physical Surface (211) = {211};
Line Loop (212) = {-371,267,462,463,464};
Plane Surface (212) = {212}; Physical Surface (212) = {212};
Line Loop (213) = {464,369,172,465,466};
Plane Surface (213) = {213}; Physical Surface (213) = {213};
Line Loop (214) = {-462,-283,96,467,468};
Plane Surface (214) = {214}; Physical Surface (214) = {214};
Line Loop (215) = {466,-463,-468,469,470};
Plane Surface (215) = {215}; Physical Surface (215) = {215};
Line Loop (216) = {-420,-173,465,-470,471,100};
Plane Surface (216) = {216}; Physical Surface (216) = {216};
Line Loop (217) = {99,-471,-469,-467};
Plane Surface (217) = {217}; Physical Surface (217) = {217};
Surface Loop (1) = {-1,-2,-3,-4,-5,-6,7,8,9,-10};
Volume (1) = {1};
Physical Volume (1) = {1};
Surface Loop (2) = {5,11,12,-13,-14,-15,16,-17,-18,-19,-20,-21,-22,23,24,-25,26,-27,-28,-29,-30,-31,-32};
Volume (2) = {2};
Physical Volume (2) = {2};
Surface Loop (3) = {33,1,34,-35,15,36,37,38,39,40,41,-42,43,-44,-45,-46};
Volume (3) = {3};
Physical Volume (3) = {3};
Surface Loop (4) = {-47,48,-49,50,-51,-52,-53,-54,-55,-56,57,58,-59,60,61,62};
Volume (4) = {4};
Physical Volume (4) = {4};
Surface Loop (5) = {-63,64,-65,-66,-67,-68,-69,70,-71,72,-73,74,75,76,77,-78,-79,-80,-81};
Volume (5) = {5};
Physical Volume (5) = {5};
Surface Loop (6) = {-82,-83,-84,85,86,87,88,89,-26,-90,91};
Volume (6) = {6};
Physical Volume (6) = {6};
Surface Loop (7) = {92,6,93,94,17,95,-43,-96,97,-98,-99,90,-100,-101,-102,-103};
Volume (7) = {7};
Physical Volume (7) = {7};
Surface Loop (8) = {-104,-105,106,-107,108,-109,110,-111,-95,-112,-113,-114,115,-116,-117,118,119,-91,-120,45,121,122,-123,32,124,-125};
Volume (8) = {8};
Physical Volume (8) = {8};
Surface Loop (9) = {-126,-127,-128,-129,-8,-94,-130,-131,-132,-133,134,18,-135,136,-137,138,139,140};
Volume (9) = {9};
Physical Volume (9) = {9};
Surface Loop (10) = {-141,4,-142,-92,69,-143,131,144,145,146,147,148,-149};
Volume (10) = {10};
Physical Volume (10) = {10};
Surface Loop (11) = {150,-151,152,-153,-154,155,-156};
Volume (11) = {11};
Physical Volume (11) = {11};
Surface Loop (12) = {-157,-158,159,-160,161,65,162,-108};
Volume (12) = {12};
Physical Volume (12) = {12};
Surface Loop (13) = {151,-163,-164,-165,-166,-167,-168,-57,-169,100,-170,-124};
Volume (13) = {13};
Physical Volume (13) = {13};
Surface Loop (14) = {-171,158,172,-64,142,-93,-7,-173,-40,-110};
Volume (14) = {14};
Physical Volume (14) = {14};
Surface Loop (15) = {174,-175,-176,-177,-178,-179,-88,96,-180,-136,181,-182,-183,184,28,-185};
Volume (15) = {15};
Physical Volume (15) = {15};
Surface Loop (16) = {-172,141,2,-186,-34,187,66,-188,189,-190};
Volume (16) = {16};
Physical Volume (16) = {16};
Surface Loop (17) = {-174,-191,192,193,194,132,195,196,197,198};
Volume (17) = {17};
Physical Volume (17) = {17};
Surface Loop (18) = {199,164,200,-201,202,203,143,204,-205,-97,137,-75};
Volume (18) = {18};
Physical Volume (18) = {18};
Surface Loop (19) = {-150,-199,163,-206,207,-208,209,210,211};
Volume (19) = {19};
Physical Volume (19) = {19};
Surface Loop (20) = {157,171,212,186,-213,67,-36,112,214,215,216,217};
Volume (20) = {20};
Physical Volume (20) = {20};
