Point (1) = {0.811667051094,0.097378494087,-0.009810346843};
Point (2) = {0.811698175882,0.507729376784,-0.009779001348};
Point (3) = {0.510923339899,-0.078130479488,0.090737150841};
Point (4) = {0.510923339899,0.683231612432,0.090814619575};
Point (5) = {0.242167762846,0.302577571775,0.180644767043};
Point (6) = {0.215767028652,0.302577571775,0.134314871904};
Point (7) = {0.816440460865,0.119297692788,-0.238780856729};
Point (8) = {0.814625839438,0.003282026146,-0.152137403174};
Point (9) = {0.816469124491,0.485815742666,-0.238794295645};
Point (10) = {0.814672191991,0.601834389726,-0.152137403174};
Point (11) = {0.510923339899,-0.197423406104,-0.085218265939};
Point (12) = {0.566917621075,-0.197423406104,-0.152137403174};
Point (13) = {0.510923339899,0.802576593896,-0.085218265939};
Point (14) = {0.566917621075,0.802576593896,-0.152137403174};
Point (15) = {0.213563092432,0.110992961499,-0.152137403174};
Point (16) = {0.472789984551,-0.197423406104,-0.152137403174};
Point (17) = {0.510923339899,-0.197423406104,-0.186455294744};
Point (18) = {0.510923339899,-0.062753305215,-0.288321328754};
Point (19) = {0.213552110488,0.494148366900,-0.152137403174};
Point (20) = {0.212447590189,0.302577571775,-0.296050345711};
Point (21) = {0.250763633433,0.302577571775,-0.330532646191};
Point (22) = {0.510923339899,0.667859353190,-0.288357384452};
Point (23) = {0.510923339899,0.802576593896,-0.186455294744};
Point (24) = {0.472789984551,0.802576593896,-0.152137403174};
Point (25) = {1.151243941504,0.302577571775,0.160443282498};
Point (26) = {1.215767028652,0.302577571775,0.134314871904};
Point (27) = {1.213563092432,0.110992961499,-0.152137403174};
Point (28) = {1.129208196065,0.302577571775,-0.312905826837};
Point (29) = {1.212447590189,0.302577571775,-0.296050345711};
Point (30) = {1.213552110488,0.494148366900,-0.152137403174};
Point (31) = {-0.188332948906,1.097378494087,-0.009810346843};
Point (32) = {-0.188301824118,0.507729376784,-0.009779001348};
Point (33) = {-0.183559539135,1.119297692788,0.761219143271};
Point (34) = {-0.183530875509,0.485815742666,0.761205704355};
Point (35) = {0.129208196065,1.302577571775,0.687094173163};
Point (36) = {0.242167762846,1.302577571775,0.180644767043};
Point (37) = {0.215767028652,1.302577571775,0.134314871904};
Point (38) = {0.151243941504,1.302577571775,0.160443282498};
Point (39) = {-0.185374160562,1.003282026146,0.847862596826};
Point (40) = {-0.433082378925,0.802576593896,0.847862596826};
Point (41) = {-0.185327808009,0.601834389726,0.847862596826};
Point (42) = {-0.489076660101,0.921869520512,0.090737150841};
Point (43) = {-0.489076660101,0.937246694785,0.711678671246};
Point (44) = {-0.489076660101,0.802576593896,0.813544705256};
Point (45) = {-0.489076660101,0.667859353190,0.711642615548};
Point (46) = {-0.489076660101,0.683231612432,0.090814619575};
Point (47) = {-0.489076660101,0.802576593896,-0.085218265939};
Point (48) = {-0.185327808009,0.601834389726,-0.152137403174};
Point (49) = {0.213563092432,1.110992961499,-0.152137403174};
Point (50) = {-0.185374160562,1.003282026146,-0.152137403174};
Point (51) = {-0.433082378925,0.802576593896,-0.152137403174};
Point (52) = {0.151243941504,0.302577571775,0.160443282498};
Point (53) = {0.129208196065,0.302577571775,0.687094173163};
Point (54) = {0.510923339899,0.921869520512,0.090737150841};
Point (55) = {0.212447590189,1.302577571775,0.703949654289};
Point (56) = {0.213563092432,1.110992961499,0.847862596826};
Point (57) = {0.510923339899,0.937246694785,0.711678671246};
Point (58) = {0.250763633433,1.302577571775,0.669467353809};
Point (59) = {0.213552110488,0.494148366900,0.847862596826};
Point (60) = {0.212447590189,0.302577571775,0.703949654289};
Point (61) = {0.250763633433,0.302577571775,0.669467353809};
Point (62) = {0.510923339899,0.667859353190,0.711642615548};
Point (63) = {0.510923339899,0.802576593896,0.813544705256};
Point (64) = {0.472789984551,0.802576593896,0.847862596826};
Point (65) = {1.129208196065,0.302577571775,0.687094173163};
Point (66) = {0.816440460865,0.119297692788,0.761219143271};
Point (67) = {0.816469124491,0.485815742666,0.761205704355};
Point (68) = {0.510923339899,-0.062753305215,0.711678671246};
Line (1) = {7,8};
Line (2) = {8,1};
Line (3) = {1,2};
Line (4) = {2,10};
Line (5) = {10,9};
Line (6) = {9,7};
Line (7) = {1,3};
Line (8) = {3,5};
Line (9) = {5,4};
Line (10) = {4,2};
Line (11) = {7,18};
Line (12) = {18,21};
Line (13) = {21,22};
Line (14) = {22,9};
Line (15) = {8,12};
Line (16) = {12,11};
Line (17) = {11,3};
Line (18) = {4,13};
Line (19) = {13,14};
Line (20) = {14,10};
Line (21) = {15,6};
Line (22) = {6,19};
Line (23) = {19,20};
Line (24) = {20,15};
Line (25) = {5,6};
Line (26) = {15,16};
Line (27) = {16,11};
Line (28) = {19,24};
Line (29) = {24,13};
Line (30) = {18,17};
Line (31) = {17,12};
Line (32) = {22,23};
Line (33) = {23,14};
Line (34) = {17,16};
Line (35) = {23,24};
Line (36) = {21,20};
Line (37) = {2,25};
Line (38) = {25,1};
Line (39) = {26,25};
Line (40) = {8,27};
Line (41) = {27,26};
Line (42) = {10,30};
Line (43) = {30,26};
Line (44) = {7,28};
Line (45) = {28,9};
Line (46) = {27,29};
Line (47) = {29,30};
Line (48) = {29,28};
Line (49) = {33,35};
Line (50) = {35,38};
Line (51) = {38,31};
Line (52) = {31,42};
Line (53) = {42,43};
Line (54) = {43,33};
Line (55) = {34,45};
Line (56) = {45,46};
Line (57) = {46,32};
Line (58) = {32,52};
Line (59) = {52,53};
Line (60) = {53,34};
Line (61) = {37,38};
Line (62) = {31,50};
Line (63) = {50,49};
Line (64) = {49,37};
Line (65) = {19,48};
Line (66) = {48,32};
Line (67) = {52,6};
Line (68) = {42,47};
Line (69) = {47,51};
Line (70) = {51,50};
Line (71) = {47,46};
Line (72) = {48,51};
Line (73) = {39,33};
Line (74) = {35,55};
Line (75) = {55,56};
Line (76) = {56,39};
Line (77) = {41,34};
Line (78) = {53,60};
Line (79) = {60,59};
Line (80) = {59,41};
Line (81) = {36,37};
Line (82) = {49,24};
Line (83) = {13,54};
Line (84) = {54,36};
Line (85) = {36,58};
Line (86) = {58,57};
Line (87) = {57,54};
Line (88) = {5,61};
Line (89) = {61,62};
Line (90) = {62,4};
Line (91) = {40,39};
Line (92) = {43,44};
Line (93) = {44,40};
Line (94) = {41,40};
Line (95) = {44,45};
Line (96) = {55,58};
Line (97) = {59,64};
Line (98) = {64,56};
Line (99) = {60,61};
Line (100) = {62,63};
Line (101) = {63,57};
Line (102) = {64,63};
Line (103) = {25,65};
Line (104) = {65,66};
Line (105) = {66,68};
Line (106) = {68,3};
Line (107) = {65,67};
Line (108) = {67,62};
Line (109) = {67,66};
Line (110) = {68,61};
Line Loop (1) = {1,2,3,4,5,6};
Plane Surface (1) = {1}; Physical Surface (1) = {1};
Line Loop (2) = {-3,7,8,9,10};
Plane Surface (2) = {2}; Physical Surface (2) = {2};
Line Loop (3) = {6,11,12,13,14};
Plane Surface (3) = {3}; Physical Surface (3) = {3};
Line Loop (4) = {-7,-2,15,16,17};
Plane Surface (4) = {4}; Physical Surface (4) = {4};
Line Loop (5) = {-4,-10,18,19,20};
Plane Surface (5) = {5}; Physical Surface (5) = {5};
Line Loop (6) = {21,22,23,24};
Plane Surface (6) = {6}; Physical Surface (6) = {6};
Line Loop (7) = {17,8,25,-21,26,27};
Plane Surface (7) = {7}; Physical Surface (7) = {7};
Line Loop (8) = {-18,-9,25,22,28,29};
Plane Surface (8) = {8}; Physical Surface (8) = {8};
Line Loop (9) = {-15,-1,11,30,31};
Plane Surface (9) = {9}; Physical Surface (9) = {9};
Line Loop (10) = {20,5,-14,32,33};
Plane Surface (10) = {10}; Physical Surface (10) = {10};
Line Loop (11) = {-16,-31,34,27};
Plane Surface (11) = {11}; Physical Surface (11) = {11};
Line Loop (12) = {19,-33,35,29};
Plane Surface (12) = {12}; Physical Surface (12) = {12};
Line Loop (13) = {26,-34,-30,12,36,24};
Plane Surface (13) = {13}; Physical Surface (13) = {13};
Line Loop (14) = {23,-36,13,32,35,-28};
Plane Surface (14) = {14}; Physical Surface (14) = {14};
Line Loop (15) = {3,37,38};
Plane Surface (15) = {15}; Physical Surface (15) = {15};
Line Loop (16) = {39,38,-2,40,41};
Plane Surface (16) = {16}; Physical Surface (16) = {16};
Line Loop (17) = {39,-37,4,42,43};
Plane Surface (17) = {17}; Physical Surface (17) = {17};
Line Loop (18) = {44,45,6};
Plane Surface (18) = {18}; Physical Surface (18) = {18};
Line Loop (19) = {-41,46,47,43};
Plane Surface (19) = {19}; Physical Surface (19) = {19};
Line Loop (20) = {1,40,46,48,-44};
Plane Surface (20) = {20}; Physical Surface (20) = {20};
Line Loop (21) = {5,-45,-48,47,-42};
Plane Surface (21) = {21}; Physical Surface (21) = {21};
Line Loop (22) = {49,50,51,52,53,54};
Plane Surface (22) = {22}; Physical Surface (22) = {22};
Line Loop (23) = {55,56,57,58,59,60};
Plane Surface (23) = {23}; Physical Surface (23) = {23};
Line Loop (24) = {61,51,62,63,64};
Plane Surface (24) = {24}; Physical Surface (24) = {24};
Line Loop (25) = {65,66,58,67,22};
Plane Surface (25) = {25}; Physical Surface (25) = {25};
Line Loop (26) = {52,68,69,70,-62};
Plane Surface (26) = {26}; Physical Surface (26) = {26};
Line Loop (27) = {71,57,-66,72,-69};
Plane Surface (27) = {27}; Physical Surface (27) = {27};
Line Loop (28) = {73,49,74,75,76};
Plane Surface (28) = {28}; Physical Surface (28) = {28};
Line Loop (29) = {77,-60,78,79,80};
Plane Surface (29) = {29}; Physical Surface (29) = {29};
Line Loop (30) = {81,-64,82,29,83,84};
Plane Surface (30) = {30}; Physical Surface (30) = {30};
Line Loop (31) = {84,85,86,87};
Plane Surface (31) = {31}; Physical Surface (31) = {31};
Line Loop (32) = {-9,88,89,90};
Plane Surface (32) = {32}; Physical Surface (32) = {32};
Line Loop (33) = {91,73,-54,92,93};
Plane Surface (33) = {33}; Physical Surface (33) = {33};
Line Loop (34) = {-77,94,-93,95,-55};
Plane Surface (34) = {34}; Physical Surface (34) = {34};
Line Loop (35) = {81,61,-50,74,96,-85};
Plane Surface (35) = {35}; Physical Surface (35) = {35};
Line Loop (36) = {76,-91,-94,-80,97,98};
Plane Surface (36) = {36}; Physical Surface (36) = {36};
Line Loop (37) = {53,92,95,56,-71,-68};
Plane Surface (37) = {37}; Physical Surface (37) = {37};
Line Loop (38) = {-65,28,-82,-63,-70,-72};
Plane Surface (38) = {38}; Physical Surface (38) = {38};
Line Loop (39) = {25,-67,59,78,99,-88};
Plane Surface (39) = {39}; Physical Surface (39) = {39};
Line Loop (40) = {87,-83,-18,-90,100,101};
Plane Surface (40) = {40}; Physical Surface (40) = {40};
Line Loop (41) = {-86,-96,75,-98,102,101};
Plane Surface (41) = {41}; Physical Surface (41) = {41};
Line Loop (42) = {-79,99,89,100,-102,-97};
Plane Surface (42) = {42}; Physical Surface (42) = {42};
Line Loop (43) = {-38,103,104,105,106,-7};
Plane Surface (43) = {43}; Physical Surface (43) = {43};
Line Loop (44) = {37,103,107,108,90,10};
Plane Surface (44) = {44}; Physical Surface (44) = {44};
Line Loop (45) = {109,105,110,89,-108};
Plane Surface (45) = {45}; Physical Surface (45) = {45};
Line Loop (46) = {104,-109,-107};
Plane Surface (46) = {46}; Physical Surface (46) = {46};
Line Loop (47) = {106,8,88,-110};
Plane Surface (47) = {47}; Physical Surface (47) = {47};
Surface Loop (1) = {-1,-2,3,-4,-5,6,7,-8,-9,10,-11,12,-13,-14};
Volume (1) = {1};
Physical Volume (1) = {1};
Surface Loop (2) = {1,-15,16,-17,-18,19,-20,-21};
Volume (2) = {2};
Physical Volume (2) = {2};
Surface Loop (3) = {22,23,-24,-25,-26,-27,-28,29,-30,8,31,-32,33,34,35,36,-37,-38,-39,-40,41,42};
Volume (3) = {3};
Physical Volume (3) = {3};
Surface Loop (4) = {2,15,43,-44,-45,-46,-47,32};
Volume (4) = {4};
Physical Volume (4) = {4};
