Point (1) = {0.845104779409,1.176419550539,0.692734073643};
Point (2) = {0.929966234799,0.804141412132,0.692734073643};
Point (3) = {0.593173122106,0.538868522012,0.692734073643};
Point (4) = {0.323574637223,0.618932820165,0.692734073643};
Point (5) = {0.757960210418,1.240414362993,0.692734073643};
Point (6) = {0.058601537299,1.241636461046,-0.007773546726};
Point (7) = {0.058601537299,0.618932820165,0.427649431344};
Point (8) = {0.058601537299,0.537981011623,0.154947707698};
Point (9) = {0.058601537299,0.803347601216,-0.178829199904};
Point (10) = {0.058601537299,1.178165451091,-0.093400536256};
Point (11) = {1.058601537299,1.241636461046,-0.007773546726};
Point (12) = {0.757960210418,1.240414362993,-0.307265926357};
Point (13) = {0.740029051794,0.447040844061,0.530312643640};
Point (14) = {0.219395869743,0.447040844061,0.009460297222};
Point (15) = {0.740029051794,1.447040844061,0.530312643640};
Point (16) = {0.219395869743,1.447040844061,0.009460297222};
Point (17) = {0.292268532325,1.447040844061,-0.108314571998};
Point (18) = {0.582031750471,1.447040844061,-0.202803178957};
Point (19) = {0.954926910659,1.447040844061,0.166621970377};
Point (20) = {0.860598064596,1.447040844061,0.455977321523};
Point (21) = {1.058601537299,1.178165451091,-0.093400536256};
Point (22) = {0.845104779409,1.176419550539,-0.307265926357};
Point (23) = {0.929966234799,0.804141412132,-0.307265926357};
Point (24) = {1.058601537299,0.803347601216,-0.178829199904};
Point (25) = {1.041954372392,0.618932820165,0.478714894859};
Point (26) = {1.058601537299,0.618932820165,0.427649431344};
Point (27) = {1.058601537299,0.537981011623,0.154947707698};
Point (28) = {0.954926910659,0.447040844061,0.166621970377};
Point (29) = {0.860598064596,0.447040844061,0.455977321523};
Point (30) = {0.270981414852,0.618932820165,-0.290115853449};
Point (31) = {0.292268532325,0.447040844061,-0.108314571998};
Point (32) = {0.582031750471,0.447040844061,-0.202803178957};
Point (33) = {0.593173122106,0.538868522012,-0.307265926357};
Point (34) = {0.323574637223,0.618932820165,-0.307265926357};
Point (35) = {0.058601537299,0.241636461046,-0.007773546726};
Point (36) = {0.757960210418,0.240414362993,0.692734073643};
Point (37) = {0.270981414852,-0.381067179835,0.709884146551};
Point (38) = {0.323574637223,-0.381067179835,0.692734073643};
Point (39) = {0.058601537299,-0.381067179835,0.427649431344};
Point (40) = {0.041954372392,-0.381067179835,0.478714894859};
Point (41) = {-0.154895220591,0.176419550539,0.692734073643};
Point (42) = {0.058601537299,0.178165451091,0.906599463744};
Point (43) = {0.058601537299,-0.196652398784,0.821170800096};
Point (44) = {-0.070033765201,-0.195858587868,0.692734073643};
Point (45) = {-0.045073089341,0.447040844061,0.166621970377};
Point (46) = {0.041954372392,0.618932820165,0.478714894859};
Point (47) = {-0.139401935404,0.447040844061,0.455977321523};
Point (48) = {0.582031750471,0.447040844061,0.797196821043};
Point (49) = {0.270981414852,0.618932820165,0.709884146551};
Point (50) = {0.292268532325,0.447040844061,0.891685428002};
Point (51) = {0.954926910659,0.447040844061,1.166621970377};
Point (52) = {1.058601537299,0.537981011623,1.154947707698};
Point (53) = {1.058601537299,0.803347601216,0.821170800096};
Point (54) = {1.270981414852,0.618932820165,0.709884146551};
Point (55) = {0.845104779409,0.176419550539,0.692734073643};
Point (56) = {1.058601537299,0.178165451091,0.906599463744};
Point (57) = {1.292268532325,0.447040844061,0.891685428002};
Point (58) = {1.219395869743,0.447040844061,1.009460297222};
Point (59) = {1.058601537299,0.241636461046,0.992226453274};
Line (1) = {6,7};
Line (2) = {7,4};
Line (3) = {4,5};
Line (4) = {5,15};
Line (5) = {15,16};
Line (6) = {16,6};
Line (7) = {28,27};
Line (8) = {27,24};
Line (9) = {24,23};
Line (10) = {23,33};
Line (11) = {33,32};
Line (12) = {32,28};
Line (13) = {12,18};
Line (14) = {18,19};
Line (15) = {19,11};
Line (16) = {11,21};
Line (17) = {21,22};
Line (18) = {22,12};
Line (19) = {19,20};
Line (20) = {20,1};
Line (21) = {1,2};
Line (22) = {2,25};
Line (23) = {25,26};
Line (24) = {26,11};
Line (25) = {18,17};
Line (26) = {17,10};
Line (27) = {10,9};
Line (28) = {9,30};
Line (29) = {30,34};
Line (30) = {34,12};
Line (31) = {13,3};
Line (32) = {3,2};
Line (33) = {25,29};
Line (34) = {29,13};
Line (35) = {9,8};
Line (36) = {8,14};
Line (37) = {14,31};
Line (38) = {31,30};
Line (39) = {1,5};
Line (40) = {15,20};
Line (41) = {6,10};
Line (42) = {17,16};
Line (43) = {8,7};
Line (44) = {4,3};
Line (45) = {13,14};
Line (46) = {21,24};
Line (47) = {27,26};
Line (48) = {22,23};
Line (49) = {33,34};
Line (50) = {29,28};
Line (51) = {32,31};
Line (52) = {36,13};
Line (53) = {14,35};
Line (54) = {35,39};
Line (55) = {39,38};
Line (56) = {38,36};
Line (57) = {46,47};
Line (58) = {47,41};
Line (59) = {41,42};
Line (60) = {42,50};
Line (61) = {50,49};
Line (62) = {49,46};
Line (63) = {36,48};
Line (64) = {48,3};
Line (65) = {35,45};
Line (66) = {45,8};
Line (67) = {41,44};
Line (68) = {44,40};
Line (69) = {40,39};
Line (70) = {45,47};
Line (71) = {42,43};
Line (72) = {43,37};
Line (73) = {37,38};
Line (74) = {48,50};
Line (75) = {37,40};
Line (76) = {44,43};
Line (77) = {7,46};
Line (78) = {49,4};
Line (79) = {54,25};
Line (80) = {29,55};
Line (81) = {55,56};
Line (82) = {56,57};
Line (83) = {57,54};
Line (84) = {48,51};
Line (85) = {51,52};
Line (86) = {52,53};
Line (87) = {53,2};
Line (88) = {55,36};
Line (89) = {51,59};
Line (90) = {59,56};
Line (91) = {52,58};
Line (92) = {58,59};
Line (93) = {53,54};
Line (94) = {57,58};
Line Loop (1) = {1,2,3,4,5,6};
Plane Surface (1) = {1}; Physical Surface (1) = {1};
Line Loop (2) = {7,8,9,10,11,12};
Plane Surface (2) = {2}; Physical Surface (2) = {2};
Line Loop (3) = {13,14,15,16,17,18};
Plane Surface (3) = {3}; Physical Surface (3) = {3};
Line Loop (4) = {-15,19,20,21,22,23,24};
Plane Surface (4) = {4}; Physical Surface (4) = {4};
Line Loop (5) = {13,25,26,27,28,29,30};
Plane Surface (5) = {5}; Physical Surface (5) = {5};
Line Loop (6) = {31,32,22,33,34};
Plane Surface (6) = {6}; Physical Surface (6) = {6};
Line Loop (7) = {35,36,37,38,-28};
Plane Surface (7) = {7}; Physical Surface (7) = {7};
Line Loop (8) = {39,4,40,20};
Plane Surface (8) = {8}; Physical Surface (8) = {8};
Line Loop (9) = {41,-26,42,6};
Plane Surface (9) = {9}; Physical Surface (9) = {9};
Line Loop (10) = {43,2,44,-31,45,-36};
Plane Surface (10) = {10}; Physical Surface (10) = {10};
Line Loop (11) = {21,-32,-44,3,-39};
Plane Surface (11) = {11}; Physical Surface (11) = {11};
Line Loop (12) = {1,-43,-35,-27,-41};
Plane Surface (12) = {12}; Physical Surface (12) = {12};
Line Loop (13) = {16,46,-8,47,24};
Plane Surface (13) = {13}; Physical Surface (13) = {13};
Line Loop (14) = {-18,48,10,49,30};
Plane Surface (14) = {14}; Physical Surface (14) = {14};
Line Loop (15) = {-45,-34,50,-12,51,-37};
Plane Surface (15) = {15}; Physical Surface (15) = {15};
Line Loop (16) = {5,-42,-25,14,19,-40};
Plane Surface (16) = {16}; Physical Surface (16) = {16};
Line Loop (17) = {17,48,-9,-46};
Plane Surface (17) = {17}; Physical Surface (17) = {17};
Line Loop (18) = {23,-47,-7,-50,-33};
Plane Surface (18) = {18}; Physical Surface (18) = {18};
Line Loop (19) = {-38,-51,-11,49,-29};
Plane Surface (19) = {19}; Physical Surface (19) = {19};
Line Loop (20) = {52,45,53,54,55,56};
Plane Surface (20) = {20}; Physical Surface (20) = {20};
Line Loop (21) = {57,58,59,60,61,62};
Plane Surface (21) = {21}; Physical Surface (21) = {21};
Line Loop (22) = {-52,63,64,-31};
Plane Surface (22) = {22}; Physical Surface (22) = {22};
Line Loop (23) = {53,65,66,36};
Plane Surface (23) = {23}; Physical Surface (23) = {23};
Line Loop (24) = {67,68,69,-54,65,70,58};
Plane Surface (24) = {24}; Physical Surface (24) = {24};
Line Loop (25) = {71,72,73,56,63,74,-60};
Plane Surface (25) = {25}; Physical Surface (25) = {25};
Line Loop (26) = {75,-68,76,72};
Plane Surface (26) = {26}; Physical Surface (26) = {26};
Line Loop (27) = {73,-55,-69,-75};
Plane Surface (27) = {27}; Physical Surface (27) = {27};
Line Loop (28) = {77,-62,78,-2};
Plane Surface (28) = {28}; Physical Surface (28) = {28};
Line Loop (29) = {59,71,-76,-67};
Plane Surface (29) = {29}; Physical Surface (29) = {29};
Line Loop (30) = {66,43,77,57,-70};
Plane Surface (30) = {30}; Physical Surface (30) = {30};
Line Loop (31) = {64,-44,-78,-61,-74};
Plane Surface (31) = {31}; Physical Surface (31) = {31};
Line Loop (32) = {79,33,80,81,82,83};
Plane Surface (32) = {32}; Physical Surface (32) = {32};
Line Loop (33) = {-32,-64,84,85,86,87};
Plane Surface (33) = {33}; Physical Surface (33) = {33};
Line Loop (34) = {88,63,84,89,90,-81};
Plane Surface (34) = {34}; Physical Surface (34) = {34};
Line Loop (35) = {85,91,92,-89};
Plane Surface (35) = {35}; Physical Surface (35) = {35};
Line Loop (36) = {-22,-87,93,79};
Plane Surface (36) = {36}; Physical Surface (36) = {36};
Line Loop (37) = {86,93,-83,94,-91};
Plane Surface (37) = {37}; Physical Surface (37) = {37};
Line Loop (38) = {-80,34,-52,-88};
Plane Surface (38) = {38}; Physical Surface (38) = {38};
Line Loop (39) = {82,94,92,90};
Plane Surface (39) = {39}; Physical Surface (39) = {39};
Surface Loop (1) = {1,-2,3,4,-5,-6,-7,-8,-9,-10,-11,-12,-13,14,-15,-16,-17,-18,-19};
Volume (1) = {1};
Physical Volume (1) = {1};
Surface Loop (2) = {-20,21,-22,23,-24,25,-26,10,-27,28,-29,-30,31};
Volume (2) = {2};
Physical Volume (2) = {2};
Surface Loop (3) = {-32,33,-34,22,-35,36,6,-37,-38,39};
Volume (3) = {3};
Physical Volume (3) = {3};
